<?xml version="1.0" standalone="no"?>
<!DOCTYPE svg PUBLIC "-//W3C//DTD SVG 20010904//EN"
 "http://www.w3.org/TR/2001/REC-SVG-20010904/DTD/svg10.dtd">
<svg version="1.0" xmlns="http://www.w3.org/2000/svg"
 width="500.000000pt" height="500.000000pt" viewBox="0 0 500.000000 500.000000"
 preserveAspectRatio="xMidYMid meet">
<metadata>
Created by potrace 1.14, written by Peter Selinger 2001-2017
</metadata>
<g transform="translate(0.000000,500.000000) scale(0.100000,-0.100000)"
fill="#000000" stroke="none">
<path d="M770 4603 c0 -5 31 -42 69 -83 l68 -75 -32 -37 c-42 -50 -82 -132
-100 -210 -12 -50 -14 -128 -12 -388 l2 -325 27 -45 c38 -63 69 -94 124 -120
41 -20 65 -24 181 -26 73 -1 133 0 133 1 0 2 -19 12 -42 24 -57 27 -112 82
-140 139 -20 41 -23 62 -22 169 0 115 2 125 30 179 33 66 93 118 156 135 26 7
154 11 349 10 294 0 310 -1 359 -22 66 -28 126 -96 144 -163 20 -70 16 -1020
-4 -1081 -27 -83 -98 -154 -175 -176 l-40 -11 38 -13 c75 -26 129 -74 173
-155 18 -33 19 -65 21 -616 1 -523 -1 -588 -16 -646 -55 -205 -261 -387 -464
-411 -21 -3 -41 -8 -44 -11 -11 -10 18 -89 48 -133 61 -88 143 -127 250 -120
117 8 254 80 347 182 l49 53 18 -30 c21 -35 136 -153 181 -185 l30 -22 30 25
c16 14 43 38 60 52 16 15 56 57 87 95 31 37 57 63 57 59 0 -5 27 -36 60 -69
139 -138 345 -198 467 -135 85 44 152 137 153 211 0 24 -4 32 -13 28 -24 -9
-110 14 -186 50 -86 41 -210 157 -255 238 -67 122 -65 106 -66 750 0 561 0
584 20 629 27 64 107 140 164 157 l46 13 -50 19 c-64 24 -132 90 -156 153 -18
46 -19 84 -19 574 0 592 -4 562 79 641 69 67 96 71 443 70 208 0 317 -4 342
-12 79 -26 145 -93 171 -174 8 -23 13 -84 12 -146 0 -86 -4 -116 -22 -158 -26
-58 -83 -115 -146 -143 -24 -10 -44 -20 -44 -22 0 -1 62 -2 138 -1 123 1 143
4 183 24 60 31 96 67 127 126 l26 50 1 314 c1 172 -2 336 -7 364 -15 80 -46
152 -93 216 l-43 59 60 63 c103 110 158 99 -475 99 -606 0 -614 -1 -726 -61
-59 -31 -114 -78 -167 -142 l-31 -38 -28 41 c-40 58 -183 189 -202 186 -23 -4
-143 -113 -189 -172 l-39 -51 -61 66 c-73 79 -150 127 -242 152 -61 17 -112
19 -619 19 -304 0 -553 -3 -553 -7z"/>
</g>
</svg>
